<?xml version="1.0" standalone="no"?>
<!DOCTYPE svg PUBLIC "-//W3C//DTD SVG 20010904//EN"
 "http://www.w3.org/TR/2001/REC-SVG-20010904/DTD/svg10.dtd">
<svg version="1.0" xmlns="http://www.w3.org/2000/svg"
 width="1016.000000pt" height="872.000000pt" viewBox="0 0 1016.000000 872.000000"
 preserveAspectRatio="xMidYMid meet">
<metadata>
Created by potrace 1.16, written by Peter Selinger 2001-2019
</metadata>
<g transform="translate(0.000000,872.000000) scale(0.100000,-0.100000)"
fill="#000000" stroke="none">
<path d="M737 5213 c-9 -8 -9 -1755 0 -2020 l6 -203 214 0 213 0 0 450 0 450
270 0 270 0 0 200 0 200 -270 0 -270 0 0 235 0 235 330 0 330 0 0 230 0 230
-543 0 c-299 0 -547 -3 -550 -7z"/>
<path d="M3047 5213 c-3 -5 -32 -76 -65 -158 -33 -83 -229 -573 -437 -1090
-208 -517 -380 -948 -383 -957 -4 -17 11 -18 216 -18 l220 0 69 115 68 115
366 0 366 0 68 -115 68 -115 218 0 219 0 -19 48 c-47 119 -627 1571 -741 1857
l-128 320 -50 3 c-28 2 -53 -1 -55 -5z m170 -1316 l112 -282 -226 -3 c-124 -1
-228 -1 -230 1 -2 2 47 133 109 290 62 157 115 283 118 281 2 -3 55 -132 117
-287z"/>
<path d="M4520 4105 l0 -1115 218 2 217 3 3 612 2 612 183 -187 c101 -103 228
-234 282 -290 l100 -104 287 294 287 293 1 -617 0 -618 215 0 215 0 0 808 c0
444 2 945 3 1114 l2 308 -71 0 -70 0 -72 -82 c-158 -181 -787 -877 -793 -877
-4 -1 -182 191 -395 426 -214 235 -411 451 -438 480 l-48 53 -64 0 -64 0 0
-1115z"/>
<path d="M7160 4105 l0 -1115 224 0 223 0 7 101 c3 55 6 557 6 1115 l0 1014
-230 0 -230 0 0 -1115z"/>
<path d="M8270 4105 l0 -1115 215 0 215 0 0 415 0 416 106 -3 106 -3 60 -105
c33 -58 74 -132 92 -165 18 -33 94 -171 170 -307 l138 -248 229 0 c126 0 229
3 229 6 0 6 -112 212 -369 678 -67 121 -121 223 -121 227 0 3 26 16 58 28 191
69 318 225 364 449 65 313 -96 652 -370 779 -126 59 -172 63 -673 63 l-449 0
0 -1115z m893 631 c95 -42 177 -156 177 -246 -1 -88 -70 -189 -164 -238 -50
-26 -53 -27 -261 -27 l-210 0 -3 255 c-1 140 0 261 3 268 8 22 406 12 458 -12z"/>
<path d="M760 2011 c0 -213 -2 -203 45 -203 8 0 20 0 25 1 6 0 10 32 10 71 l0
70 59 0 c74 0 120 28 140 86 12 35 12 46 0 84 -21 65 -58 83 -181 88 l-98 4 0
-201z m195 113 c19 -25 19 -64 -1 -92 -12 -18 -25 -22 -65 -22 l-49 0 0 71 0
72 50 -5 c34 -4 55 -11 65 -24z"/>
<path d="M1143 2190 c-40 -24 -53 -48 -53 -98 0 -57 28 -86 105 -112 70 -23
88 -47 66 -89 -18 -32 -54 -36 -107 -10 l-47 22 -19 -22 c-22 -28 -17 -38 36
-62 49 -22 95 -24 139 -5 48 20 69 50 74 103 6 63 -18 95 -95 123 -70 26 -82
36 -82 66 0 42 57 57 112 28 30 -15 32 -15 45 2 21 29 15 44 -22 60 -48 20
-114 18 -152 -6z"/>
<path d="M1404 2197 c-2 -7 -3 -98 -2 -202 l3 -190 35 0 35 0 3 203 2 202 -35
0 c-20 0 -38 -6 -41 -13z"/>
<path d="M1652 2189 c-79 -40 -120 -132 -102 -230 25 -131 161 -197 280 -136
50 25 56 35 36 62 -14 19 -16 19 -46 3 -40 -23 -104 -23 -141 -1 -31 18 -59
77 -59 121 0 15 9 45 19 68 30 66 119 90 183 50 23 -14 53 3 53 29 0 51 -144
73 -223 34z"/>
<path d="M2024 2191 c-120 -55 -150 -232 -54 -327 66 -65 144 -80 230 -43 109
47 149 173 91 287 -10 20 -27 45 -38 54 -53 49 -157 62 -229 29z m180 -81 c25
-24 30 -39 34 -88 7 -99 -36 -153 -122 -154 -78 -2 -126 52 -126 139 0 122
132 185 214 103z"/>
<path d="M2377 2203 c-4 -3 -7 -93 -7 -200 l0 -193 120 0 120 0 0 30 0 30 -80
0 -80 0 0 170 0 170 -33 0 c-19 0 -37 -3 -40 -7z"/>
<path d="M2741 2199 c-100 -40 -148 -145 -116 -254 20 -71 69 -119 135 -135
95 -23 181 9 225 83 64 110 27 250 -79 298 -44 20 -125 24 -165 8z m124 -63
c93 -39 102 -209 14 -256 -32 -18 -104 -16 -134 4 -79 52 -70 206 15 248 43
22 60 22 105 4z"/>
<path d="M3165 2191 c-140 -63 -154 -265 -26 -356 39 -27 50 -30 119 -29 53 0
87 6 110 17 l32 18 0 84 0 85 -65 0 -65 0 0 -30 c0 -28 3 -30 35 -30 33 0 35
-2 35 -35 0 -29 -5 -37 -27 -46 -47 -18 -111 -5 -146 30 -27 26 -32 39 -35 96
-4 58 -2 69 22 100 39 50 88 63 160 40 45 -14 59 -15 71 -5 25 21 17 37 -30
59 -56 26 -135 27 -190 2z"/>
<path d="M3480 2010 l0 -200 35 0 35 0 0 200 0 200 -35 0 -35 0 0 -200z"/>
<path d="M3735 2143 c-37 -91 -125 -324 -125 -330 0 -2 16 -3 37 -1 33 3 38 7
52 46 l15 43 86 -3 85 -3 15 -42 c14 -41 17 -43 53 -43 21 0 37 4 35 9 -1 4
-37 94 -78 200 l-75 191 -36 0 c-36 0 -37 -1 -64 -67z"/>
<path d="M4100 2205 c0 -4 32 -60 70 -126 70 -120 70 -121 70 -195 l0 -74 34
0 34 0 4 78 c4 75 6 81 71 189 37 61 67 117 67 122 0 6 -16 11 -35 11 -33 0
-36 -3 -86 -96 l-51 -95 -52 93 c-49 90 -52 93 -88 96 -21 2 -38 0 -38 -3z"/>
<path d="M4607 2203 c-4 -3 -7 -93 -7 -200 l0 -193 40 0 40 0 0 70 0 70 59 0
c71 0 119 28 139 82 28 73 -9 146 -84 167 -43 12 -177 15 -187 4z m182 -71
c28 -22 31 -75 6 -102 -13 -15 -31 -20 -67 -20 l-48 0 0 70 0 70 44 0 c27 0
52 -7 65 -18z"/>
<path d="M4990 2191 c-24 -12 -39 -30 -49 -58 -27 -76 3 -121 105 -157 54 -19
59 -24 62 -53 2 -23 -3 -35 -20 -47 -30 -21 -51 -20 -100 5 -40 20 -42 21 -55
3 -20 -27 -16 -42 16 -58 112 -59 231 -5 231 104 0 41 -4 52 -30 73 -16 14
-46 31 -67 37 -81 26 -103 59 -65 93 23 21 58 21 97 1 27 -14 30 -14 42 2 21
29 15 44 -22 60 -47 19 -103 18 -145 -5z"/>
<path d="M5250 2010 l0 -200 35 0 35 0 0 200 0 200 -35 0 -35 0 0 -200z"/>
<path d="M5510 2194 c-79 -34 -120 -100 -120 -192 0 -107 63 -185 160 -198 53
-7 118 8 152 36 l23 19 -21 21 c-20 20 -24 21 -45 7 -13 -8 -36 -17 -51 -21
-38 -9 -106 21 -123 53 -69 134 32 268 163 215 34 -13 45 -14 57 -4 25 21 17
40 -27 60 -51 23 -120 25 -168 4z"/>
<path d="M5885 2198 c-40 -14 -94 -65 -111 -105 -18 -42 -18 -131 1 -175 42
-103 189 -148 289 -90 103 60 127 220 48 314 -50 59 -148 83 -227 56z m129
-63 c45 -21 66 -62 66 -127 0 -89 -44 -141 -118 -140 -62 1 -97 24 -117 77
-29 75 -5 158 55 187 43 22 72 23 114 3z"/>
<path d="M6220 2010 l0 -200 35 0 34 0 3 68 3 67 60 6 c104 9 145 46 145 132
0 89 -63 127 -209 127 l-71 0 0 -200z m185 115 c29 -28 32 -61 9 -93 -12 -18
-25 -22 -70 -22 l-54 0 0 70 0 70 45 0 c35 0 52 -6 70 -25z"/>
<path d="M6560 2010 l0 -200 126 0 125 0 -3 26 c-3 25 -5 26 -88 27 l-85 2 0
55 0 55 68 3 c67 3 67 3 67 32 l0 30 -71 0 -70 0 3 53 3 52 88 3 87 3 0 29 0
30 -125 0 -125 0 0 -200z"/>
<path d="M6878 2204 c-5 -4 -8 -94 -8 -201 l0 -193 104 0 c115 0 147 8 189 48
44 41 60 81 61 147 1 77 -33 139 -96 175 -36 20 -60 25 -143 28 -55 2 -103 1
-107 -4z m197 -68 c19 -8 44 -30 55 -48 36 -60 20 -166 -31 -199 -31 -20 -91
-31 -123 -23 l-26 6 0 139 0 139 45 0 c25 0 61 -6 80 -14z"/>
<path d="M7387 2203 c-3 -4 -37 -91 -77 -193 -40 -102 -74 -188 -77 -192 -2
-5 13 -8 34 -8 37 0 40 2 59 48 l20 47 82 -3 81 -3 17 -45 c16 -41 19 -44 54
-44 l38 0 -78 198 -78 197 -35 3 c-19 2 -37 -1 -40 -5z"/>
<path d="M7735 2192 c-106 -50 -143 -178 -85 -291 35 -70 115 -107 205 -98 29
3 67 13 84 21 31 17 31 17 31 101 l0 85 -65 0 -65 0 0 -30 c0 -28 3 -30 35
-30 33 0 35 -2 35 -35 0 -29 -5 -37 -26 -45 -96 -37 -184 28 -184 136 0 67 30
114 88 134 38 13 47 13 96 -4 45 -16 58 -17 71 -6 41 34 -14 71 -115 77 -49 3
-75 -1 -105 -15z"/>
<path d="M8140 2199 c-85 -35 -125 -107 -118 -209 5 -72 42 -132 103 -168 57
-32 155 -28 212 10 113 74 116 260 6 344 -32 25 -48 29 -108 31 -38 2 -81 -2
-95 -8z m150 -78 c40 -28 51 -60 47 -129 -2 -51 -8 -67 -29 -88 -54 -54 -159
-39 -194 28 -24 46 -15 140 16 173 43 45 108 52 160 16z"/>
<path d="M8584 2203 c-12 -2 -40 -20 -63 -39 -108 -93 -83 -283 45 -343 40
-19 60 -23 114 -19 37 3 79 11 96 19 28 14 29 16 32 102 l3 87 -71 0 -70 0 0
-30 c0 -28 3 -30 35 -30 33 0 35 -2 35 -34 0 -30 -4 -36 -32 -45 -44 -14 -104
1 -136 32 -30 30 -44 99 -31 149 21 81 118 115 203 71 28 -15 31 -14 48 7 25
31 23 36 -25 59 -41 20 -122 26 -183 14z"/>
<path d="M8882 2008 l3 -203 38 -3 37 -3 0 205 0 206 -40 0 -40 0 2 -202z"/>
<path d="M9087 2013 c-42 -109 -77 -201 -77 -205 0 -10 51 -10 67 0 6 4 19 26
28 50 l17 42 82 0 83 0 13 -41 c8 -22 21 -44 31 -50 21 -11 56 -12 62 -1 2 4
-31 95 -73 202 l-77 195 -39 3 -39 3 -78 -198z"/>
<path d="M1605 1293 c-103 -181 -200 -348 -215 -373 -15 -25 -45 -76 -67 -115
-22 -38 -91 -158 -153 -265 -62 -107 -123 -214 -137 -237 l-24 -43 4011 0
c2205 0 4010 2 4010 4 0 2 -20 38 -44 79 -50 84 -153 261 -291 502 -51 88
-141 246 -202 350 -60 105 -140 243 -177 308 l-68 117 -3227 0 -3227 0 -189
-327z"/>
</g>
</svg>
